# Blender v2.76 (sub 0) OBJ File: 'monalisa.blend'
# www.blender.org
mtllib monalisa.mtl
o canvas_Cube.001
v 0.193970 0.020178 0.014830
v -0.193970 0.020178 0.014830
v 0.193969 0.574377 0.014830
v -0.193970 0.574377 0.014830
vt 0.820425 0.000100
vt 0.820424 0.999900
vt 0.179575 0.999900
vt 0.179575 0.000100
vn 0.000000 0.000000 1.000000
usemtl mat_canvas
s 1
f 1/1/1 3/2/1 4/3/1 2/4/1
o frame_Cube
v 0.208094 0.000000 0.000992
v 0.208094 0.000000 0.030720
v -0.208094 0.000000 0.030720
v -0.208094 0.000000 0.000992
v 0.208094 0.594555 0.000992
v 0.208094 0.594555 0.030720
v -0.208094 0.594555 0.030720
v -0.208094 0.594555 0.000992
v 0.193970 0.020178 0.023638
v -0.193970 0.020178 0.023638
v 0.193969 0.574377 0.023638
v -0.193970 0.574377 0.023638
v 0.193970 0.020178 0.010458
v -0.193970 0.020178 0.010458
v 0.193969 0.574377 0.010458
v -0.193970 0.574377 0.010458
v 0.201032 0.010089 0.030720
v -0.201032 0.010089 0.030720
v -0.201032 0.584466 0.030720
v 0.201032 0.584466 0.030720
vt 0.521919 0.509961
vt 0.668569 0.649441
vt 0.359671 0.662797
vt 0.517537 0.512203
vt 0.527216 0.506238
vt 0.503119 0.506146
vt 0.318432 0.330046
vt 0.655919 0.339678
vt 0.353654 0.662920
vt 0.672388 0.653573
vt 0.766152 0.755294
vt 0.251170 0.754175
vt 0.757268 0.235103
vt 0.997047 0.000100
vt 0.999900 0.993134
vt 0.655548 0.331985
vt 0.321304 0.333487
vt 0.231496 0.235597
vt 0.017535 0.983016
vt 0.000100 0.000100
vn 0.000000 -1.000000 0.000000
vn 0.000000 1.000000 0.000000
vn 1.000000 0.000000 0.000000
vn -0.000000 0.574500 0.818500
vn -1.000000 -0.000000 -0.000000
vn 0.000000 0.000000 -1.000000
vn -0.000000 -0.574500 0.818500
vn 0.708100 0.000000 0.706100
vn -0.708100 -0.000000 0.706100
vn -0.000000 -0.000000 1.000000
usemtl mat_frame
s off
f 5/5/2 6/6/2 7/7/2 8/8/2
f 9/9/3 12/10/3 11/11/3 10/12/3
f 5/5/4 9/9/4 10/12/4 6/6/4
f 22/13/5 21/14/5 13/15/5 14/16/5
f 7/7/6 11/11/6 12/10/6 8/8/6
f 9/9/7 5/5/7 8/8/7 12/10/7
f 13/15/6 15/17/6 19/18/6 17/19/6
f 24/20/8 23/21/8 16/22/8 15/17/8
f 23/21/9 22/13/9 14/16/9 16/22/9
f 21/14/10 24/20/10 15/17/10 13/15/10
f 16/22/4 14/16/4 18/23/4 20/24/4
f 14/16/3 13/15/3 17/19/3 18/23/3
f 15/17/2 16/22/2 20/24/2 19/18/2
f 6/6/11 10/12/11 24/20/11 21/14/11
f 11/11/11 7/7/11 22/13/11 23/21/11
f 10/12/11 11/11/11 23/21/11 24/20/11
f 7/7/11 6/6/11 21/14/11 22/13/11
