# Blender v2.76 (sub 0) OBJ File: 'wall1.blend'
# www.blender.org
mtllib wall1.mtl
o Cube
v 0.100000 0.000000 0.000000
v -0.100000 0.000000 0.000000
v -0.100000 0.000000 -1.000000
v 0.100000 0.000000 -1.000000
v 0.100000 2.000000 0.000000
v -0.100000 2.000000 -0.000000
v -0.100000 2.000000 -1.000000
v 0.100000 2.000000 -1.000000
v 0.100000 1.000000 0.000000
v -0.100000 1.000000 -0.000000
v -0.100000 1.000000 -1.000000
v 0.100000 1.000000 -1.000000
v 0.100000 0.000000 -0.500000
v -0.100000 0.000000 -0.500000
v 0.100000 2.000000 -0.500000
v -0.100000 2.000000 -0.500000
v 0.100000 1.000000 -0.500000
v -0.100000 1.000000 -0.500000
v 0.100000 1.500000 0.000000
v -0.100000 1.500000 -0.000000
v -0.100000 1.500000 -1.000000
v 0.100000 1.500000 -1.000000
v 0.100000 1.500000 -0.500000
v -0.100000 1.500000 -0.500000
v 0.100000 0.500000 0.000000
v -0.100000 0.500000 -0.000000
v -0.100000 0.500000 -1.000000
v 0.100000 0.500000 -1.000000
v -0.100000 0.500000 -0.500000
v 0.100000 0.500000 -0.500000
vt 0.356668 0.500000
vt 0.643332 0.500000
vt 0.643332 0.999900
vt 0.356668 0.999900
vt 0.616119 0.500000
vt 0.616119 0.999900
vt 0.383880 0.999900
vt 0.383880 0.500000
vt 0.000043 0.250022
vt 0.000043 0.000043
vt 0.182663 0.000043
vt 0.182663 0.250021
vt 0.182663 0.749979
vt 0.182663 0.999957
vt 0.000043 0.999957
vt 0.000043 0.749979
vt 0.500041 0.250021
vt 0.500041 0.000041
vt 1.000000 -0.000000
vt 1.000000 0.250000
vt 0.500041 0.749979
vt 0.500041 0.500000
vt 1.000000 0.500000
vt 1.000000 0.750000
vt 0.182663 0.500000
vt 0.000043 0.500000
vt 0.000082 0.749959
vt 0.000082 0.500000
vt 0.000082 0.250041
vt 0.000082 0.000082
vt 0.616119 0.000100
vt 0.383880 0.000100
vt 0.356668 0.000100
vt 0.643332 0.000100
vt 0.000082 0.999918
vt 0.500041 0.999959
vt 1.000000 1.000000
vn 0.000000 -1.000000 0.000000
vn 0.000000 1.000000 0.000000
vn -0.000000 0.000000 1.000000
vn 0.000000 -0.000000 -1.000000
vn -1.000000 -0.000000 -0.000000
vn 1.000000 0.000000 -0.000000
usemtl mat_wall1
s off
f 13/1/1 14/2/1 3/3/1 4/4/1
f 15/5/2 8/6/2 7/7/2 16/8/2
f 19/9/3 5/10/3 6/11/3 20/12/3
f 21/13/4 7/14/4 8/15/4 22/16/4
f 24/17/5 16/18/5 7/19/5 21/20/5
f 23/17/6 15/18/6 5/19/6 19/20/6
f 30/21/6 17/22/6 9/23/6 25/24/6
f 29/21/5 18/22/5 11/23/5 27/24/5
f 27/12/4 11/25/4 12/26/4 28/9/4
f 25/16/3 9/26/3 10/25/3 26/13/3
f 26/27/5 10/28/5 18/22/5 29/21/5
f 28/27/6 12/28/6 17/22/6 30/21/6
f 22/29/6 8/30/6 15/18/6 23/17/6
f 20/29/5 6/30/5 16/18/5 24/17/5
f 5/31/2 15/5/2 16/8/2 6/32/2
f 1/33/1 2/34/1 14/2/1 13/1/1
f 10/28/5 20/29/5 24/17/5 18/22/5
f 12/28/6 22/29/6 23/17/6 17/22/6
f 17/22/6 23/17/6 19/20/6 9/23/6
f 18/22/5 24/17/5 21/20/5 11/23/5
f 11/25/4 21/13/4 22/16/4 12/26/4
f 9/26/3 19/9/3 20/12/3 10/25/3
f 4/35/6 28/27/6 30/21/6 13/36/6
f 2/35/5 26/27/5 29/21/5 14/36/5
f 1/15/3 25/16/3 26/13/3 2/14/3
f 3/11/4 27/12/4 28/9/4 4/10/4
f 14/36/5 29/21/5 27/24/5 3/37/5
f 13/36/6 30/21/6 25/24/6 1/37/6
