# Blender v2.78 (sub 0) OBJ File: 'asteroid1.blend'
# www.blender.org
mtllib asteroid1.mtl
o Plane
v 0.046276 1.797055 -0.029761
v -0.030810 -1.668753 0.143269
v -1.597852 -0.064201 0.168044
v 1.611393 -0.028412 -0.208108
v -1.424952 -1.373511 -0.140016
v -1.422654 1.438800 0.091069
v -0.130893 -0.210879 -1.805113
v -0.026633 0.003514 1.742349
v 1.306329 1.433851 0.058816
v 1.249310 -1.275267 -0.051419
v 0.082765 -1.291225 1.563333
v 0.026358 1.211694 1.258403
v -0.001533 1.243125 -1.253778
v 0.042330 -1.246168 -1.211228
v -0.725053 1.560536 -0.123569
v -1.223875 -0.213683 -1.082336
v 1.267914 -0.140230 1.454810
v 0.805104 1.675694 0.059173
v 1.484172 -0.609600 -0.064332
v -1.771945 -0.643243 0.157225
v -1.527134 0.719471 -0.120603
v -0.898259 -1.873865 -0.078462
v 1.222016 0.103823 -1.287293
v -1.164538 -0.112213 1.273021
v 1.864578 0.729024 0.256654
v 0.661745 -1.589049 0.024768
v 0.895876 -1.228840 0.885410
v -1.078378 -1.079953 0.978633
v -0.030001 -0.583777 1.650546
v -0.128620 -1.673369 0.816043
v 0.885291 1.254829 0.891871
v -1.009646 1.218422 1.044333
v 0.129640 1.404926 0.632191
v 0.184115 0.787525 1.459851
v -0.901589 1.158127 -0.831365
v 0.813471 1.134249 -0.888540
v 0.023163 1.595436 -0.641174
v -0.175170 0.604957 -1.600969
v -0.896195 -1.337042 -0.758966
v 0.886257 -1.249292 -0.883509
v 0.199800 -0.502019 -1.835771
v 0.006215 -1.632388 -0.671834
v 0.589923 -1.878707 -0.343100
v 1.380829 -0.632401 -1.315395
v -0.937606 -0.531470 -1.015775
v 1.269931 0.815354 -1.126881
v 0.307711 1.621934 -0.577105
v -0.602850 1.807141 -0.401385
v -1.148815 0.754685 1.150891
v -0.250716 1.731463 0.497588
v 0.602992 1.703385 0.658968
v -0.515079 -1.405851 0.406674
v -1.015803 -0.868774 1.310992
v 1.366372 -0.710255 1.178845
v 0.439297 -1.653794 0.485700
v 1.139181 0.881056 1.370528
v -1.140996 0.673990 -1.108690
v -0.638346 -1.608186 -0.538078
vt 0.8738 0.1251
vt 0.9986 0.0001
vt 0.9986 0.1251
vt 0.8738 0.6250
vt 0.8738 0.5000
vt 0.9986 0.5000
vt 0.9986 0.6250
vt 0.3745 0.6250
vt 0.3745 0.5000
vt 0.4993 0.5000
vt 0.4993 0.6250
vt 0.3745 0.1251
vt 0.4993 0.0001
vt 0.4993 0.1251
vt 0.3745 0.3750
vt 0.3745 0.2500
vt 0.4993 0.2501
vt 0.4993 0.3750
vt 0.1249 0.3750
vt 0.1249 0.2500
vt 0.2497 0.2500
vt 0.2497 0.3750
vt 0.1249 0.1251
vt 0.2497 0.0001
vt 0.2497 0.1251
vt 0.3745 0.8749
vt 0.3745 0.7499
vt 0.4993 0.7499
vt 0.4993 0.8749
vt 0.1249 0.8749
vt 0.1249 0.7499
vt 0.2497 0.7499
vt 0.2497 0.8749
vt 0.1249 0.6250
vt 0.1249 0.5000
vt 0.2497 0.5000
vt 0.2497 0.6250
vt 0.8738 0.8749
vt 0.8738 0.7500
vt 0.9986 0.7500
vt 0.9986 0.8749
vt 0.6242 0.8749
vt 0.6242 0.7499
vt 0.7490 0.7500
vt 0.7490 0.8749
vt 0.6242 0.6250
vt 0.6242 0.5000
vt 0.7490 0.5000
vt 0.7490 0.6250
vt 0.8738 0.3750
vt 0.8738 0.2501
vt 0.9986 0.2501
vt 0.9986 0.3750
vt 0.6242 0.3750
vt 0.6242 0.2501
vt 0.7490 0.2501
vt 0.7490 0.3750
vt 0.6242 0.1251
vt 0.7490 0.0001
vt 0.7490 0.1251
vt 0.6242 0.0001
vt 0.6242 0.9999
vt 0.4993 0.9999
vt 0.8738 0.9999
vt 0.7490 0.9999
vt 0.0001 0.7499
vt 0.0001 0.6250
vt 0.0001 0.5000
vt 0.1249 0.9999
vt 0.0001 0.9999
vt 0.0001 0.8749
vt 0.3745 0.9999
vt 0.2497 0.9999
vt 0.0001 0.2500
vt 0.0001 0.1251
vt 0.1249 0.0001
vt 0.0001 0.3750
vt 0.3745 0.0001
vt 0.8738 0.0001
vn -0.1745 -0.8617 -0.4765
vn -0.0733 -0.9929 0.0939
vn -0.2269 -0.9737 0.0187
vn -0.7034 0.2818 -0.6525
vn -0.7840 -0.1155 -0.6099
vn -0.9986 0.0192 0.0488
vn -0.9739 0.2021 -0.1032
vn 0.5434 0.3946 0.7409
vn 0.6369 -0.1060 0.7636
vn 0.9950 -0.0452 -0.0889
vn 0.9504 0.2968 0.0930
vn 0.2905 -0.9427 0.1635
vn 0.4668 -0.8675 0.1715
vn 0.7806 -0.3201 0.5368
vn 0.5832 -0.6715 0.4570
vn 0.7577 -0.6525 0.0140
vn 0.9596 -0.2811 -0.0062
vn -0.5695 -0.2555 0.7812
vn -0.5943 -0.6231 0.5084
vn 0.0445 -0.6747 0.7367
vn -0.0341 -0.2855 0.9577
vn -0.3492 -0.8385 0.4183
vn -0.1597 -0.9548 0.2506
vn 0.1198 0.8978 0.4238
vn 0.3665 0.7664 0.5274
vn 0.6256 0.7785 -0.0498
vn 0.4086 0.9085 -0.0870
vn 0.0187 0.9456 0.3246
vn -0.5002 0.5889 0.6349
vn -0.0308 0.6494 0.7598
vn -0.0350 0.8300 0.5566
vn -0.6843 0.2395 0.6887
vn -0.6848 0.0935 0.7227
vn -0.0812 0.0395 0.9959
vn -0.0190 0.3869 0.9219
vn -0.2970 0.9362 -0.1880
vn -0.5264 0.6195 -0.5823
vn -0.7689 0.6389 0.0212
vn -0.4132 0.9091 0.0539
vn 0.2373 0.8734 -0.4252
vn 0.4233 0.6951 -0.5811
vn 0.0031 0.6776 -0.7354
vn 0.0467 0.8600 -0.5082
vn 0.6608 0.3692 -0.6535
vn 0.6846 0.1299 -0.7172
vn -0.2057 -0.1066 -0.9728
vn -0.1224 0.3609 -0.9245
vn -0.6447 -0.3572 -0.6758
vn -0.5312 -0.5191 -0.6696
vn -0.7687 -0.6221 -0.1486
vn -0.9729 -0.2309 0.0115
vn 0.7448 -0.2760 -0.6075
vn 0.5165 -0.7131 -0.4740
vn -0.0914 -0.6564 -0.7488
vn 0.0627 -0.2709 -0.9605
vn 0.2662 -0.9575 -0.1103
vn -0.0759 -0.8965 -0.4364
vn 0.0168 0.9997 0.0175
usemtl ast_mat
s 1
f 58/1/1 2/2/2 22/3/3
f 57/4/4 16/5/5 3/6/6 21/7/7
f 56/8/8 17/9/9 4/10/10 25/11/11
f 55/12/12 2/13/2 26/14/13
f 54/15/14 27/16/15 10/17/16 19/18/17
f 53/19/18 28/20/19 11/21/20 29/22/21
f 52/23/22 2/24/2 30/25/23
f 51/26/24 31/27/25 9/28/26 18/29/27
f 50/30/28 32/31/29 12/32/30 33/33/31
f 49/34/32 24/35/33 8/36/34 34/37/35
f 48/38/36 35/39/37 6/40/38 15/41/39
f 47/42/40 36/43/41 13/44/42 37/45/43
f 46/46/44 23/47/45 7/48/46 38/49/47
f 45/50/48 39/51/49 5/52/50 20/53/51
f 44/54/52 40/55/53 14/56/54 41/57/55
f 43/58/56 2/59/2 42/60/57
f 40/55/53 43/58/56 42/60/57 14/56/54
f 10/17/16 26/14/13 43/58/56 40/55/53
f 26/14/13 2/61/2 43/58/56
f 23/47/45 44/54/52 41/57/55 7/48/46
f 4/10/10 19/18/17 44/54/52 23/47/45
f 19/18/17 10/17/16 40/55/53 44/54/52
f 16/5/5 45/50/48 20/53/51 3/6/6
f 7/48/46 41/57/55 45/50/48 16/5/5
f 41/57/55 14/56/54 39/51/49 45/50/48
f 36/43/41 46/46/44 38/49/47 13/44/42
f 9/28/26 25/11/11 46/46/44 36/43/41
f 25/11/11 4/10/10 23/47/45 46/46/44
f 1/62/58 47/42/40 37/45/43
f 1/63/58 18/29/27 47/42/40
f 18/29/27 9/28/26 36/43/41 47/42/40
f 1/64/58 48/38/36 15/41/39
f 1/65/58 37/45/43 48/38/36
f 37/45/43 13/44/42 35/39/37 48/38/36
f 32/31/29 49/34/32 34/37/35 12/32/30
f 6/66/38 21/67/7 49/34/32 32/31/29
f 21/67/7 3/68/6 24/35/33 49/34/32
f 1/69/58 50/30/28 33/33/31
f 1/70/58 15/71/39 50/30/28
f 15/71/39 6/66/38 32/31/29 50/30/28
f 1/72/58 51/26/24 18/29/27
f 1/73/58 33/33/31 51/26/24
f 33/33/31 12/32/30 31/27/25 51/26/24
f 28/20/19 52/23/22 30/25/23 11/21/20
f 5/74/50 22/75/3 52/23/22 28/20/19
f 22/75/3 2/76/2 52/23/22
f 24/35/33 53/19/18 29/22/21 8/36/34
f 3/68/6 20/77/51 53/19/18 24/35/33
f 20/77/51 5/74/50 28/20/19 53/19/18
f 17/9/9 54/15/14 19/18/17 4/10/10
f 8/36/34 29/22/21 54/15/14 17/9/9
f 29/22/21 11/21/20 27/16/15 54/15/14
f 27/16/15 55/12/12 26/14/13 10/17/16
f 11/21/20 30/25/23 55/12/12 27/16/15
f 30/25/23 2/78/2 55/12/12
f 31/27/25 56/8/8 25/11/11 9/28/26
f 12/32/30 34/37/35 56/8/8 31/27/25
f 34/37/35 8/36/34 17/9/9 56/8/8
f 35/39/37 57/4/4 21/7/7 6/40/38
f 13/44/42 38/49/47 57/4/4 35/39/37
f 38/49/47 7/48/46 16/5/5 57/4/4
f 39/51/49 58/1/1 22/3/3 5/52/50
f 14/56/54 42/60/57 58/1/1 39/51/49
f 42/60/57 2/79/2 58/1/1
