# Blender v2.76 (sub 0) OBJ File: 'ceiling.blend'
# www.blender.org
mtllib ceiling.mtl
o Plane
v -4.000000 0.000000 4.000000
v 4.000000 0.000000 4.000000
v -4.000000 0.000000 -4.000000
v 4.000000 0.000000 -4.000000
v -4.000000 -0.100000 -4.000000
v -4.000000 -0.100000 4.000000
v 4.000000 -0.100000 4.000000
v 4.000000 -0.100000 -4.000000
vn -0.577300 0.577300 0.577300
vn 0.577300 0.577300 0.577300
vn 0.577300 0.577300 -0.577300
vn -0.577300 0.577300 -0.577300
vn -0.577300 -0.577300 0.577300
vn -0.577300 -0.577300 -0.577300
vn 0.577300 -0.577300 -0.577300
vn 0.577300 -0.577300 0.577300
usemtl None
s 1
f 1//1 2//2 4//3 3//4
f 6//5 5//6 8//7 7//8
f 2//2 7//8 8//7 4//3
f 3//4 5//6 6//5 1//1
f 4//3 8//7 5//6 3//4
f 1//1 6//5 7//8 2//2
