# Blender v2.76 (sub 0) OBJ File: 'wall2.blend'
# www.blender.org
mtllib wall2.mtl
o Cube
v 4.000000 0.000000 -0.200000
v 4.000000 0.000000 0.000000
v -4.000000 0.000000 0.000000
v -3.999999 0.000000 -0.200000
v 4.000002 3.000000 -0.200000
v 3.999997 3.000000 0.000000
v -4.000001 3.000000 -0.000000
v -4.000000 3.000000 -0.200000
v -2.799999 0.000000 -0.200000
v -2.800000 0.000000 0.000000
v -2.800000 3.000000 -0.200000
v -2.800002 3.000000 0.000000
v -1.779999 0.000000 -0.200000
v -1.780000 0.000000 0.000000
v -1.779999 3.000000 -0.200000
v -1.780002 3.000000 0.000000
v 4.000001 1.950000 -0.200000
v 3.999998 1.950000 0.000000
v -4.000001 1.950000 -0.000000
v -3.999999 1.950000 -0.200000
v -2.799999 1.950000 -0.200000
v -2.800001 1.950000 0.000000
v -1.780001 1.950000 0.000000
v -1.779999 1.950000 -0.200000
vn 0.577300 -0.577300 -0.577300
vn 0.577300 -0.577300 0.577300
vn -0.577300 -0.577300 0.577300
vn -0.577300 -0.577300 -0.577300
vn 0.000000 0.707100 -0.707100
vn -0.577300 0.577300 -0.577300
vn -0.577300 0.577300 0.577300
vn 0.000000 0.707100 0.707100
vn 0.707100 0.000000 -0.707100
vn 0.577300 0.577300 -0.577300
vn 0.577300 0.577300 0.577300
vn 0.707100 0.000000 0.707100
vn 0.301500 -0.301500 0.904500
vn -0.707100 0.000000 0.707100
vn -0.707100 0.000000 -0.707100
vn 0.301500 -0.301500 -0.904500
vn -0.301500 -0.301500 -0.904500
vn -0.301500 -0.301500 0.904500
usemtl MatParede
s 1
f 9//1 10//2 3//3 4//4
f 11//5 8//6 7//7 12//8
f 17//9 5//10 6//11 18//12
f 22//13 12//8 7//7 19//14
f 19//14 7//7 8//6 20//15
f 21//16 9//1 4//4 20//15
f 21//16 24//17 23//18 22//13
f 23//18 16//8 12//8 22//13
f 15//5 11//5 12//8 16//8
f 24//17 13//4 14//3 23//18
f 1//1 2//2 14//3 13//4
f 5//10 15//5 16//8 6//11
f 18//12 6//11 16//8 23//18
f 17//9 1//1 13//4 24//17
f 5//10 17//9 24//17 15//5
f 2//2 18//12 23//18 14//3
f 21//16 22//13 10//2 9//1
f 15//5 24//17 21//16 11//5
f 11//5 21//16 20//15 8//6
f 3//3 19//14 20//15 4//4
f 10//2 22//13 19//14 3//3
f 1//1 17//9 18//12 2//2
