# Blender v2.76 (sub 0) OBJ File: 'computador.blend'
# www.blender.org
mtllib computador.mtl
o portas_Cube.007
v 0.395728 0.637214 -0.205681
v 0.395728 0.637214 0.205681
v 0.395728 0.555830 -0.205681
v 0.395728 0.555830 0.205681
v 0.395728 0.458836 -0.205681
v 0.395728 0.458836 0.205681
v 0.395728 0.367308 -0.205681
v 0.395728 0.367308 0.205681
v 0.395728 0.637214 -0.114455
v 0.395728 0.555830 -0.114455
v 0.395728 0.458836 -0.114455
v 0.395728 0.367308 -0.114455
v 0.395728 0.637214 -0.160068
v 0.395728 0.555830 -0.160068
v 0.395728 0.458836 -0.160068
v 0.395728 0.367308 -0.160068
vn 1.000000 0.000000 0.000000
usemtl preto_reluz.001
s off
f 10//1 9//1 2//1 4//1
f 12//1 11//1 6//1 8//1
f 3//1 1//1 13//1 14//1
f 7//1 5//1 15//1 16//1
o butoes_Cube.006
v 0.395728 0.637214 -0.114455
v 0.395728 0.555830 -0.114455
v 0.395728 0.458836 -0.114455
v 0.395728 0.367308 -0.114455
v 0.395728 0.637214 -0.160068
v 0.395728 0.555830 -0.160068
v 0.395728 0.458836 -0.160068
v 0.395728 0.367308 -0.160068
vn 1.000000 0.000000 0.000000
usemtl cinza
s off
f 24//2 23//2 19//2 20//2
f 22//2 21//2 17//2 18//2
o frente_Cube.005
v 0.395728 0.010267 0.205681
v 0.395728 0.801723 0.205681
v 0.395728 0.010267 -0.205681
v 0.395728 0.801723 -0.205681
v 0.395728 0.637214 -0.205681
v 0.395728 0.637214 0.205681
v 0.395728 0.555830 -0.205681
v 0.395728 0.555830 0.205681
v 0.395728 0.458836 -0.205681
v 0.395728 0.458836 0.205681
v 0.395728 0.367308 -0.205681
v 0.395728 0.367308 0.205681
v 0.395728 0.010267 -0.114455
v 0.395728 0.801723 -0.114455
v 0.395728 0.637214 -0.114455
v 0.395728 0.555830 -0.114455
v 0.395728 0.458836 -0.114455
v 0.395728 0.367308 -0.114455
v 0.395728 0.010267 -0.160068
v 0.395728 0.801723 -0.160068
v 0.395728 0.637214 -0.160068
v 0.395728 0.555830 -0.160068
v 0.395728 0.458836 -0.160068
v 0.395728 0.367308 -0.160068
vn 1.000000 0.000000 0.000000
usemtl preto_reluz
s off
f 39//3 38//3 26//3 30//3
f 41//3 40//3 32//3 34//3
f 37//3 42//3 36//3 25//3
f 43//3 48//3 42//3 37//3
f 47//3 46//3 40//3 41//3
f 45//3 44//3 38//3 39//3
f 29//3 28//3 44//3 45//3
f 33//3 31//3 46//3 47//3
f 27//3 35//3 48//3 43//3
o caixilho.cinza_Cube.004
v 0.395728 0.010267 0.205681
v 0.395728 0.010267 -0.205681
v 0.289529 0.010267 -0.205681
v 0.289529 0.010267 0.205681
v 0.395728 0.801723 0.205681
v 0.395728 0.010267 0.205681
v 0.289529 0.010267 0.205681
v 0.289529 0.801723 0.205681
v 0.289529 0.801723 -0.206681
v 0.395728 0.801723 -0.206681
v 0.395728 0.010267 -0.206681
v 0.289529 0.010267 -0.206681
v 0.395728 0.801723 0.215681
v 0.395728 0.010267 0.215681
v 0.289529 0.010267 0.215681
v 0.289529 0.801723 0.215681
v 0.289529 0.801723 -0.205681
v 0.395728 0.801723 -0.205681
v 0.395728 0.801723 0.205681
v 0.289529 0.801723 0.205681
v 0.289529 0.811723 -0.205681
v 0.395728 0.811723 -0.205681
v 0.395728 0.811723 0.205681
v 0.289529 0.811723 0.205681
v 0.289529 0.801723 -0.216681
v 0.395728 0.801723 -0.216681
v 0.395728 0.010267 -0.216681
v 0.289529 0.010267 -0.216681
vn 0.000000 -1.000000 0.000000
vn -1.000000 0.000000 0.000000
vn 0.000000 0.000000 1.000000
vn 0.000000 1.000000 0.000000
vn 1.000000 0.000000 0.000000
vn 0.000000 0.000000 -1.000000
usemtl cinza
s off
f 51//4 50//4 49//4 52//4
f 56//5 55//5 63//5 64//5
f 59//4 60//4 76//4 75//4
f 62//6 61//6 64//6 63//6
f 53//7 56//7 64//7 61//7
f 55//4 54//4 62//4 63//4
f 54//8 53//8 61//8 62//8
f 68//6 67//6 71//6 72//6
f 70//7 69//7 72//7 71//7
f 66//9 65//9 69//9 70//9
f 65//5 68//5 72//5 69//5
f 67//8 66//8 70//8 71//8
f 76//9 73//9 74//9 75//9
f 57//7 58//7 74//7 73//7
f 60//5 57//5 73//5 76//5
f 58//8 59//8 75//8 74//8
o caixilho.preto_Cube.003
v -0.395728 0.000773 0.205681
v -0.395728 0.792228 0.205681
v -0.395728 0.000773 -0.205681
v -0.395728 0.792228 -0.205681
v 0.395728 0.000773 0.205681
v 0.395728 0.792228 0.205681
v 0.395728 0.000773 -0.205681
v 0.395728 0.792228 -0.205681
v 0.289529 0.000773 -0.205681
v 0.289529 0.792228 -0.205681
v 0.289529 0.000773 0.205681
v 0.289529 0.792228 0.205681
v 0.289529 0.792228 -0.205681
v 0.395728 0.792228 -0.205681
v 0.395728 0.000773 -0.205681
v 0.395728 0.792228 0.205681
v 0.395728 0.000773 0.205681
v 0.289529 0.000773 0.205681
v 0.289529 0.000773 -0.205681
v 0.289529 0.792228 0.205681
v 0.289529 0.792228 -0.205681
v 0.395728 0.792228 -0.205681
v 0.395728 0.000773 -0.205681
v 0.289529 0.000773 -0.205681
v 0.289529 0.792228 -0.206681
v 0.395728 0.792228 -0.206681
v 0.395728 0.000773 -0.206681
v 0.289529 0.000773 -0.206681
v 0.289529 0.792228 -0.205681
v 0.395728 0.792228 -0.205681
v 0.395728 0.792228 0.205681
v 0.289529 0.792228 0.205681
v 0.289529 0.792228 -0.205681
v 0.395728 0.792228 -0.205681
v 0.395728 0.792228 0.205681
v 0.289529 0.792228 0.205681
vt 0.000000 1.000000
vt 0.000000 0.500000
vt 0.299715 0.500000
vt 0.299715 1.000000
vt 0.000000 0.000000
vt 0.499271 0.500000
vt 0.499271 0.000000
vt 0.998543 0.000000
vt 0.998543 0.500000
vt 0.599429 0.500000
vt 0.599429 0.932909
vt 0.299715 0.932909
vt 0.899144 0.500000
vt 0.899144 0.932909
vt 0.999271 0.000000
vt 0.999271 0.500000
vt 1.000000 0.000000
vt 1.000000 0.500000
vt 0.899144 0.567091
vt 0.899873 0.500000
vt 0.899873 0.567091
vt 0.899873 0.634181
vt 0.899144 0.634181
vn -1.000000 0.000000 0.000000
vn 0.000000 0.000000 1.000000
vn 0.000000 1.000000 0.000000
vn 0.000000 -1.000000 0.000000
vn 0.000000 0.000000 -1.000000
vn 1.000000 0.000000 0.000000
usemtl preto
s off
f 77/1/10 78/2/10 80/3/10 79/4/10
f 88/5/11 87/5/11 94/5/11 96/5/11
f 87/6/11 88/7/11 78/8/11 77/9/11
f 86/10/12 80/11/12 78/12/12 88/3/12
f 81/5/11 82/5/11 92/5/11 93/5/11
f 79/11/13 85/10/13 87/13/13 77/14/13
f 84/5/11 83/5/11 91/5/11 90/5/11
f 79/7/14 80/6/14 86/2/14 85/5/14
f 89/5/11 90/5/11 98/5/11 97/5/11
f 96/5/11 92/5/11 107/5/11 108/5/11
f 86/5/11 88/5/11 96/5/11 89/5/11
f 83/5/11 85/5/11 95/5/11 91/5/11
f 87/5/11 81/5/11 93/5/11 94/5/11
f 85/5/11 86/5/11 89/5/11 95/5/11
f 82/5/11 84/5/11 90/5/11 92/5/11
f 100/9/10 97/8/10 101/15/10 104/16/10
f 95/5/11 89/5/11 97/5/11 100/5/11
f 91/5/11 95/5/11 100/5/11 99/5/11
f 90/5/11 91/5/11 99/5/11 98/5/11
f 98/16/15 99/15/15 103/17/15 102/18/15
f 99/19/13 100/13/13 104/20/13 103/21/13
f 97/21/12 98/22/12 102/23/12 101/19/12
f 105/5/11 108/5/11 112/5/11 109/5/11
f 92/5/11 90/5/11 106/5/11 107/5/11
f 90/5/11 89/5/11 105/5/11 106/5/11
f 89/5/11 96/5/11 108/5/11 105/5/11
f 107/5/11 106/5/11 110/5/11 111/5/11
f 108/5/11 107/5/11 111/5/11 112/5/11
f 106/5/11 105/5/11 109/5/11 110/5/11
